<svg width="570.3999877929688px" height="140.08001708984375px" xmlns="http://www.w3.org/2000/svg" viewBox="-35.199993896484386 4.959991455078125 570.3999877929688 140.08001708984375" style="background: rgba(0, 0, 0, 0) none repeat scroll 0% 0%; --darkreader-inline-bgcolor:rgba(0, 0, 0, 0); --darkreader-inline-bgimage:none;" data-darkreader-inline-bgcolor="" data-darkreader-inline-bgimage="" preserveAspectRatio="xMidYMid"><defs><filter id="editing-extrude-glow"><feFlood flood-color="#333333" result="flood-1"></feFlood><feMorphology operator="erode" radius="1" in="SourceAlpha" result="erode"></feMorphology><feComposite operator="in" in="flood-1" in2="erode" result="comp1"></feComposite><feConvolveMatrix order="3,3" divisor="1" in="comp1" result="convolve" kernelMatrix="0 0 0 1 1 1 0 0 0"></feConvolveMatrix><feOffset dx="-3" dy="0" in="convolve" result="extrude"></feOffset><feComposite operator="in" in="flood-1" in2="extrude" result="comp-extrude"></feComposite><feFlood flood-color="#000000" result="flood-2"></feFlood><feComposite operator="in" in="flood-2" in2="SourceAlpha" result="comp2"></feComposite><feMorphology operator="dilate" radius="1" in="comp2" result="dilate"></feMorphology><feOffset dx="-4.5" dy="0" in="dilate" result="offset"></feOffset><feGaussianBlur in="offset" stdDeviation="5.8" result="blur"></feGaussianBlur><feComponentTransfer in="blur" result="shadow"><feFuncA type="linear" slope="0.8" intercept="-0.2"></feFuncA></feComponentTransfer><feMerge><feMergeNode in="shadow"></feMergeNode><feMergeNode in="comp-extrude"></feMergeNode><feMergeNode in="SourceGraphic"></feMergeNode></feMerge></filter></defs><g filter="url(#editing-extrude-glow)"><g transform="translate(45.5749945640564, 98.5200023651123)"><path d="M31.09 0L26.38 0L11.31-40.06L11.06-40.06L11.06-40.06Q11.53-35.06 11.53-27.72L11.53-27.72L11.53 0L6.22 0L6.22-45.69L14.72-45.69L28.81-8.25L29.06-8.25L43.41-45.69L51.84-45.69L51.84 0L46.16 0L46.16-28.09L46.16-28.09Q46.16-32.78 46.59-40L46.59-40L46.34-40L31.09 0ZM104.16-22.91L104.16-22.91L104.16-22.91Q104.16-11.94 98.61-5.66L98.61-5.66L98.61-5.66Q93.06 0.63 83.09 0.63L83.09 0.63L83.09 0.63Q73 0.63 67.48-5.55L67.48-5.55L67.48-5.55Q61.97-11.72 61.97-22.97L61.97-22.97L61.97-22.97Q61.97-34.13 67.45-40.27L67.45-40.27L67.45-40.27Q72.94-46.41 83.16-46.41L83.16-46.41L83.16-46.41Q93.09-46.41 98.63-40.17L98.63-40.17L98.63-40.17Q104.16-33.94 104.16-22.91ZM68.03-22.91L68.03-22.91L68.03-22.91Q68.03-13.84 71.88-9.09L71.88-9.09L71.88-9.09Q75.72-4.34 83.09-4.34L83.09-4.34L83.09-4.34Q90.44-4.34 94.25-9.03L94.25-9.03L94.25-9.03Q98.06-13.72 98.06-22.91L98.06-22.91L98.06-22.91Q98.06-32.06 94.28-36.70L94.28-36.70L94.28-36.70Q90.50-41.34 83.16-41.34L83.16-41.34L83.16-41.34Q75.72-41.34 71.88-36.64L71.88-36.64L71.88-36.64Q68.03-31.94 68.03-22.91ZM124.03 0L107.72-45.69L113.75-45.69L124.03-16.38L124.03-16.38Q126-10.81 126.91-6.41L126.91-6.41L126.91-6.41Q127.69-10.34 129.81-16.50L129.81-16.50L140.03-45.69L146.13-45.69L129.81 0L124.03 0ZM165.19-3.31L165.19 0L148.69 0L148.69-3.31L154.06-4.53L154.06-41.09L148.69-42.38L148.69-45.69L165.19-45.69L165.19-42.38L159.81-41.09L159.81-4.53L165.19-3.31ZM199.56-5.06L199.56 0L174.03 0L174.03-45.69L199.56-45.69L199.56-40.63L179.78-40.63L179.78-26.38L198.41-26.38L198.41-21.38L179.78-21.38L179.78-5.06L199.56-5.06ZM245.84-45.69L245.84 0L239.13 0L214.66-37.94L214.41-37.94L214.56-35.41L214.56-35.41Q214.94-29.72 214.94-25.53L214.94-25.53L214.94 0L209.63 0L209.63-45.69L216.28-45.69L217.69-43.47L232.69-20.28L240.66-7.88L240.91-7.88L240.91-7.88Q240.84-8.63 240.66-13.23L240.66-13.23L240.66-13.23Q240.47-17.84 240.47-19.91L240.47-19.91L240.47-45.69L245.84-45.69ZM271.09-3.31L271.09 0L254.59 0L254.59-3.31L259.97-4.53L259.97-41.09L254.59-42.38L254.59-45.69L271.09-45.69L271.09-42.38L265.72-41.09L265.72-4.53L271.09-3.31ZM299.78-19L299.78-24.13L315.56-24.13L315.56-1.72L315.56-1.72Q311.94-0.56 308.19 0.03L308.19 0.03L308.19 0.03Q304.44 0.63 299.50 0.63L299.50 0.63L299.50 0.63Q289.06 0.63 283.34-5.56L283.34-5.56L283.34-5.56Q277.63-11.75 277.63-22.84L277.63-22.84L277.63-22.84Q277.63-30 280.47-35.34L280.47-35.34L280.47-35.34Q283.31-40.69 288.67-43.52L288.67-43.52L288.67-43.52Q294.03-46.34 301.31-46.34L301.31-46.34L301.31-46.34Q308.63-46.34 314.94-43.66L314.94-43.66L312.75-38.66L312.75-38.66Q306.72-41.28 300.97-41.28L300.97-41.28L300.97-41.28Q292.81-41.28 288.22-36.34L288.22-36.34L288.22-36.34Q283.63-31.41 283.63-22.84L283.63-22.84L283.63-22.84Q283.63-13.78 288.03-9.06L288.03-9.06L288.03-9.06Q292.44-4.34 300.84-4.34L300.84-4.34L300.84-4.34Q305.44-4.34 309.81-5.44L309.81-5.44L309.81-19L299.78-19ZM361.47-45.69L361.47 0L355.72 0L355.72-21.31L332.28-21.31L332.28 0L326.53 0L326.53-45.69L332.28-45.69L332.28-26.38L355.72-26.38L355.72-45.69L361.47-45.69ZM388.44-40.63L388.44 0L382.66 0L382.66-40.63L368.38-40.63L368.38-45.69L402.63-45.69L402.63-40.63L388.44-40.63Z" fill="#eb6c6c" style="--darkreader-inline-fill:#851212;" data-darkreader-inline-fill=""></path></g></g><style>text {
  font-size: 64px;
  font-family: Arial Black;
  dominant-baseline: central;
  text-anchor: middle;
}</style><style class="darkreader darkreader--sync" media="screen"></style></svg>