<svg height="246pt" preserveAspectRatio="xMidYMid meet" viewBox="0 0 291 246" width="291pt" xmlns="http://www.w3.org/2000/svg"><g transform="matrix(.1 0 0 -.1 0 246)"><path d="m198 2446c-26-7-55-19-65-26-49-37-77-69-101-115l-27-50v-1020c0-964 1-1022 18-1065 22-54 77-114 132-143l40-22 1238-3c826-1 1251 1 1277 8 64 17 130 70 164 130l31 55v1035 1035l-30 54c-16 30-48 67-69 83-84 61-26 58-1350 57-943 0-1221-3-1258-13zm437-586c9-39 21-73 26-76s31 1 57 9c26 9 59 18 74 21l26 6-14 52c-7 29-14 54-14 56s19 2 42 0l42-3 28-105c15-58 30-110 32-116 3-8 55 2 163 31 87 23 246 66 353 94 107 29 202 54 211 57 11 3 15 12 12 25-5 18-2 20 37 17 43-3 44-3 58-55 8-29 20-53 26-53s42 7 79 16l68 17-6 39-7 38h41c36 0 41-3 47-27 4-16 39-149 79-298 40-148 100-376 135-505 68-255 138-515 146-542 5-15-1-18-38-18h-44l-19 78c-10 42-20 78-21 80s-22-2-45-8c-24-6-60-16-81-21l-36-9 14-53c18-70 19-67-25-67s-41-5-77 133c-13 51-21 67-35 67-16 0-176-42-589-155-74-21-154-40-177-42l-41-5-16 55c-9 30-16 60-16 67 0 6-8 9-18 6s-44-13-77-21c-32-9-61-18-63-20-3-2 0-22 6-45l10-40h-42-41l-48 178c-26 97-81 303-122 457s-102 380-135 503-60 230-60 238c0 10 12 14 39 14h39z"/><path d="m1882 1741c-34-10-65-21-68-24s5-42 17-87c25-92 13-86 127-54 54 15 58 22 42 70-5 16-14 48-20 72-12 47-12 47-98 23z"/><path d="m742 1702c-30-10-54-21-54-27 0-5 8-43 18-82 13-52 23-73 34-73 30 1 141 36 142 45 0 6-8 43-18 83-21 82-24 84-122 54z"/><path d="m1570 1639c-80-21-239-64-355-95-115-31-213-58-216-60-4-2 4-41 16-86 12-46 56-208 96-361l74-277 30 6c17 3 152 39 300 79 149 40 302 80 340 90 39 10 71 19 72 20 1 0-27 109-63 240-35 132-78 295-96 363-17 67-36 122-42 121-6 0-76-18-156-40zm-77-316c106-23 167-41 165-48-4-14-265-245-277-245-8 0-22 42-56 170-10 36-21 78-26 94-14 45-11 66 9 66 9 0 93-16 185-37z"/><path d="m1960 1477c-41-11-76-21-78-22-3-2 37-155 44-166 7-12 154 34 154 48s-38 155-42 158c-2 1-37-7-78-18z"/><path d="m875 1455c-5-2-35-11-66-20l-56-15 21-79c12-44 24-82 26-85 5-5 147 28 155 36 2 2-6 40-18 86-21 80-29 89-62 77z"/><path d="m2025 1209c-38-11-71-21-72-23-2-2 38-158 42-164 2-2 96 21 138 34 15 5 18 12 13 39-11 57-36 135-44 134-4 0-38-9-77-20z"/><path d="m887 1173-59-16 7-36c3-20 13-59 21-87l15-51 77 21c42 12 77 26 77 31 0 6-9 43-19 83-21 82-19 81-119 55z"/><path d="m2115 950c-103-28-96-18-72-107 11-43 22-80 24-82 3-5 107 17 139 29l21 8-21 80c-12 45-23 82-26 85-3 2-32-4-65-13z"/><path d="m972 911c-34-10-65-21-69-24-5-6 31-154 40-163 3-4 149 34 155 40 7 8-43 166-52 165-6 0-39-9-74-18z"/></g></svg>